# xmcd
# Track frame offsets:
# 150
# 14180
# 29935
# 47158
# 62024
# 77385
# 93465
# 109747
# 126747
# 144076
# 163911
#
# Disc length: 2346 seconds
# Revision: 0
# Processed by: cddbd v1.5.1PL0 Copyright (c) Steve Scherf et al.
# Submitted via: VisiTrax 2.9.10.228 - For more info visit www.synapsa.com
#
DISCID=9e09280b
DTITLE=Various Artist - New Country 23 Feb-Mar 2004
DYEAR=2004
DGENRE=
TTITLE0=Billy McKnight - All american
TTITLE1=Mike Randolph - Almost home
TTITLE2=Tyler Alexander - Because of you
TTITLE3=Mollie Castle - Boys
TTITLE4=Jim Arp - Catch that mystery train
TTITLE5=Tony Collins - Enjoy the ride
TTITLE6=Linda Denton - Honky tonk brawl
TTITLE7=Bill Nash - In God still we trust
TTITLE8=Floyd Flowers - Somewhere in the blues
TTITLE9=Bruce Larson - Spilled perfume
TTITLE10=Texarkana - Texarkana
EXTD=
EXTT0=
EXTT1=
EXTT2=
EXTT3=
EXTT4=
EXTT5=
EXTT6=
EXTT7=
EXTT8=
EXTT9=
EXTT10=
PLAYORDER=
